<svg width="34" height="33" viewBox="0 0 34 33" fill="none" xmlns="http://www.w3.org/2000/svg">
<path d="M9.6333 2.79984L7.24997 0.416504C3.24997 3.4665 0.616634 8.1665 0.383301 13.4998L3.71663 13.4998C3.8347 11.3862 4.42801 9.32639 5.45241 7.47381C6.47682 5.62123 7.90591 4.02359 9.6333 2.79984ZM30.2833 13.4998L33.6166 13.4998C33.3666 8.1665 30.7333 3.4665 26.75 0.416504L24.3833 2.79984C26.1033 4.02962 27.526 5.62902 28.547 7.48061C29.568 9.3322 30.1612 11.3889 30.2833 13.4998ZM27 14.3332C27 9.2165 24.2666 4.93317 19.5 3.79984L19.5 2.6665C19.5 1.28317 18.3833 0.166504 17 0.166504C15.6166 0.166504 14.5 1.28317 14.5 2.6665V3.79984C9.71663 4.93317 6.99997 9.19984 6.99997 14.3332L6.99997 22.6665L3.66663 25.9998L3.66663 27.6665L30.3333 27.6665V25.9998L27 22.6665L27 14.3332ZM17 32.6665C17.2333 32.6665 17.45 32.6498 17.6666 32.5998C18.75 32.3665 19.6333 31.6332 20.0666 30.6332C20.2333 30.2332 20.3166 29.7998 20.3166 29.3332L13.65 29.3332C13.6666 31.1665 15.15 32.6665 17 32.6665Z" fill="#117B34"/>
</svg>
