<svg width="20" height="21" viewBox="0 0 20 21" fill="none" xmlns="http://www.w3.org/2000/svg">
<path d="M15.7144 11.0359V7.893C15.7144 4.75014 13.143 2.17871 10.0001 2.17871C6.85728 2.17871 4.28585 4.75014 4.28585 7.893L4.28585 11.0359C2.21443 12.3216 1.42871 14.9644 1.42871 16.4644C1.42871 18.7501 6.78585 19.3216 10.0001 19.3216C13.2144 19.3216 18.5716 18.7501 18.5716 16.4644C18.5716 14.9644 17.7859 12.3216 15.7144 11.0359ZM10.0001 17.893C5.71443 17.893 3.07157 16.9644 2.85728 16.4644C3.00014 16.1073 4.57157 15.393 7.28585 15.1073C7.643 16.2501 8.71442 17.1073 10.0001 17.1073C11.2859 17.1073 12.3573 16.2501 12.7144 15.1073C15.3573 15.393 17.0001 16.0359 17.143 16.393C16.9287 16.9644 14.2859 17.893 10.0001 17.893Z" fill="#347A0C"/>
</svg>
