<svg width="24" height="25" viewBox="0 0 24 25" fill="none" xmlns="http://www.w3.org/2000/svg">
<path d="M11.9999 7.25098L4.28564 13.563L4.28564 21.0715C4.28564 21.5447 4.66964 21.9287 5.14279 21.9287L10.2856 21.9287L10.2856 17.2144C10.2856 16.9778 10.4776 16.7858 10.7142 16.7858H13.2856C13.5222 16.7858 13.7142 16.9778 13.7142 17.2144L13.7142 21.9287H18.8571C19.3302 21.9287 19.7142 21.5447 19.7142 21.0715L19.7142 13.563L11.9999 7.25098Z" fill="#003591"/>
<path d="M21.4284 12.4998C21.2372 12.4998 21.0452 12.4364 20.8858 12.3061L11.9998 5.0358L3.1138 12.3061C2.74694 12.6052 2.2078 12.5521 1.9078 12.1852C1.6078 11.8184 1.6618 11.2784 2.02865 10.9792L11.4572 3.26494C11.7727 3.00609 12.2269 3.00609 12.5432 3.26494L21.9718 10.9792C22.3378 11.2792 22.3918 11.8184 22.0927 12.1852C21.9229 12.3927 21.6761 12.4998 21.4284 12.4998Z" fill="#003591"/>
</svg>
