<svg width="34" height="31" viewBox="0 0 34 31" fill="none" xmlns="http://www.w3.org/2000/svg">
<path d="M12.0002 0.333496L8.95016 3.66683L3.66683 3.66683C1.8335 3.66683 0.333496 5.16683 0.333496 7.00016L0.333496 27.0002C0.333496 28.8335 1.8335 30.3335 3.66683 30.3335L30.3335 30.3335C32.1668 30.3335 33.6668 28.8335 33.6668 27.0002L33.6668 7.00016C33.6668 5.16683 32.1668 3.66683 30.3335 3.66683L25.0502 3.66683L22.0002 0.333496L12.0002 0.333496ZM17.0002 25.3335C12.4002 25.3335 8.66683 21.6002 8.66683 17.0002C8.66683 12.4002 12.4002 8.66683 17.0002 8.66683C21.6002 8.66683 25.3335 12.4002 25.3335 17.0002C25.3335 21.6002 21.6002 25.3335 17.0002 25.3335Z" fill="#003591"/>
</svg>
