<svg width="116" height="106" viewBox="0 0 116 106" fill="none" xmlns="http://www.w3.org/2000/svg">
<path d="M104.154 17.5387L87.8749 17.5387L76.9134 1.08674C76.7372 0.822621 76.4983 0.606245 76.2181 0.45692C75.9379 0.307595 75.6251 0.229968 75.3076 0.230967L48.3845 0.230967C48.068 0.230919 47.7564 0.309001 47.4773 0.458284C47.1982 0.607567 46.9602 0.823435 46.7845 1.08674L35.8172 17.5387L11.8461 17.5387C8.78683 17.5417 5.85375 18.7583 3.69053 20.9216C1.52731 23.0848 0.310672 26.0179 0.307617 29.0771L0.307617 94.4617C0.310672 97.521 1.52731 100.454 3.69053 102.617C5.85375 104.781 8.78683 105.997 11.8461 106L104.154 106C107.213 105.997 110.146 104.781 112.309 102.617C114.473 100.454 115.689 97.521 115.692 94.4617L115.692 29.0771C115.689 26.0179 114.473 23.0848 112.309 20.9216C110.146 18.7583 107.213 17.5417 104.154 17.5387ZM20.4999 42.5387C19.5491 42.5387 18.6195 42.2567 17.8289 41.7284C17.0383 41.2001 16.4221 40.4493 16.0582 39.5708C15.6943 38.6923 15.5991 37.7256 15.7846 36.793C15.9701 35.8604 16.428 35.0038 17.1004 34.3314C17.7727 33.659 18.6294 33.2012 19.562 33.0157C20.4946 32.8301 21.4613 32.9254 22.3397 33.2892C23.2182 33.6531 23.9691 34.2693 24.4974 35.06C25.0257 35.8506 25.3076 36.7801 25.3076 37.731C25.3076 39.006 24.8011 40.2289 23.8995 41.1305C22.9979 42.0321 21.775 42.5387 20.4999 42.5387ZM61.8461 90.6156C56.1408 90.6156 50.5637 88.9238 45.82 85.7541C41.0763 82.5845 37.379 78.0793 35.1957 72.8084C33.0124 67.5374 32.4412 61.7374 33.5542 56.1418C34.6672 50.5462 37.4146 45.4063 41.4488 41.3721C45.483 37.3379 50.6229 34.5906 56.2185 33.4775C61.8141 32.3645 67.6141 32.9358 72.885 35.1191C78.156 37.3024 82.6611 40.9996 85.8308 45.7434C89.0004 50.4871 90.6922 56.0642 90.6922 61.7694C90.6922 69.4199 87.6531 76.757 82.2434 82.1667C76.8337 87.5764 69.4966 90.6156 61.8461 90.6156Z" fill="#003591"/>
</svg>
