<svg width="64" height="64" viewBox="0 0 64 64" fill="none" xmlns="http://www.w3.org/2000/svg">
<path d="M56.375 18.2914L50.6314 12.5479C50.4775 12.394 50.2688 12.3076 50.0513 12.3076C49.8337 12.3076 49.625 12.394 49.4712 12.5479L24.6154 37.4036L14.5288 27.3171C14.3749 27.1633 14.1663 27.0768 13.9487 27.0768C13.7311 27.0768 13.5225 27.1633 13.3686 27.3171L7.625 33.0607C7.47118 33.2145 7.38477 33.4232 7.38477 33.6408C7.38477 33.8583 7.47118 34.067 7.625 34.2209L24.0353 50.6311C24.1891 50.785 24.3978 50.8714 24.6154 50.8714C24.8329 50.8714 25.0416 50.785 25.1955 50.6311L56.375 19.4516C56.5288 19.2978 56.6152 19.0891 56.6152 18.8715C56.6152 18.654 56.5288 18.4453 56.375 18.2914Z" fill="#003591"/>
</svg>
