<svg width="14" height="7" viewBox="0 0 14 7" fill="none" xmlns="http://www.w3.org/2000/svg">
<path d="M13.0229 1.14797L7.39792 6.77297C7.34568 6.82527 7.28365 6.86676 7.21536 6.89507C7.14707 6.92337 7.07388 6.93794 6.99995 6.93794C6.92603 6.93794 6.85284 6.92337 6.78455 6.89507C6.71626 6.86676 6.65423 6.82527 6.60199 6.77297L0.976986 1.14797C0.89823 1.0693 0.844585 0.969033 0.822844 0.85986C0.801104 0.750688 0.812244 0.637518 0.854855 0.53468C0.897465 0.431842 0.969631 0.34396 1.06221 0.282157C1.1548 0.220355 1.26364 0.187413 1.37495 0.1875L12.625 0.1875C12.7363 0.187413 12.8451 0.220355 12.9377 0.282157C13.0303 0.34396 13.1024 0.431842 13.1451 0.53468C13.1877 0.637518 13.1988 0.750688 13.1771 0.85986C13.1553 0.969033 13.1017 1.0693 13.0229 1.14797Z" fill="#ED7D2D"/>
</svg>
