<svg width="128" height="129" viewBox="0 0 128 129" fill="none" xmlns="http://www.w3.org/2000/svg">
<rect y="0.5" width="128" height="128" rx="64" fill="#F3F4F6"/>
<path d="M86.154 43.9873L41.8463 43.9873C41.1935 43.9873 40.5674 44.2466 40.1057 44.7083C39.6441 45.1699 39.3848 45.796 39.3848 46.4488L39.3848 82.5514C39.3848 83.2042 39.6441 83.8303 40.1057 84.292C40.5674 84.7536 41.1935 85.0129 41.8463 85.0129L86.154 85.0129C86.8068 85.0129 87.4329 84.7536 87.8946 84.292C88.3562 83.8303 88.6155 83.2042 88.6155 82.5514V46.4488C88.6155 45.796 88.3562 45.1699 87.8946 44.7083C87.4329 44.2466 86.8068 43.9873 86.154 43.9873ZM41.8463 45.6283L86.154 45.6283C86.3716 45.6283 86.5803 45.7148 86.7342 45.8687C86.8881 46.0225 86.9745 46.2312 86.9745 46.4488V68.99L76.0855 57.3748C76.0103 57.2946 75.9197 57.2304 75.8192 57.186C75.7187 57.1415 75.6103 57.1177 75.5004 57.1159C75.3904 57.1141 75.2813 57.1345 75.1794 57.1757C75.0775 57.2169 74.985 57.2782 74.9072 57.3559L60.4998 71.7641L63.2477 77.2862L50.6036 65.534C50.4476 65.3921 50.2429 65.3158 50.0321 65.3208C49.8212 65.3258 49.6204 65.4119 49.4713 65.561L41.0258 74.0066L41.0258 46.4488C41.0258 46.2312 41.1122 46.0225 41.2661 45.8687C41.42 45.7148 41.6287 45.6283 41.8463 45.6283Z" fill="#424856"/>
<path d="M57.4358 60.3974C60.1547 60.3974 62.3588 58.1933 62.3588 55.4743C62.3588 52.7554 60.1547 50.5513 57.4358 50.5513C54.7168 50.5513 52.5127 52.7554 52.5127 55.4743C52.5127 58.1933 54.7168 60.3974 57.4358 60.3974Z" fill="#424856"/>
</svg>
