<svg width="24" height="24" viewBox="0 0 24 24" fill="none" xmlns="http://www.w3.org/2000/svg">
<path d="M21.4286 3.42871L2.5715 3.42871C2.34417 3.42871 2.12615 3.51902 1.96541 3.67976C1.80466 3.84051 1.71436 4.05853 1.71436 4.28585L1.71436 19.7144C1.71436 19.9418 1.80466 20.1598 1.96541 20.3205C2.12615 20.4813 2.34417 20.5716 2.5715 20.5716L21.4286 20.5716C21.656 20.5716 21.874 20.4813 22.0347 20.3205C22.1955 20.1598 22.2858 19.9418 22.2858 19.7144L22.2858 4.28585C22.2858 4.05853 22.1955 3.84051 22.0347 3.67976C21.874 3.51902 21.656 3.42871 21.4286 3.42871ZM20.5715 5.143L20.5715 13.9716L16.9364 9.72871C16.8564 9.63528 16.7574 9.56014 16.6459 9.50837C16.5344 9.45661 16.413 9.42944 16.2901 9.42871C16.1661 9.42029 16.042 9.44265 15.9288 9.4938C15.8156 9.54494 15.7168 9.62329 15.6412 9.72185L10.2412 15.889L7.46321 13.1084C7.3795 13.0236 7.27881 12.9573 7.16774 12.914C7.05667 12.8708 6.93771 12.8514 6.81864 12.8573C6.6997 12.8626 6.58316 12.8926 6.47647 12.9454C6.36977 12.9983 6.27525 13.0728 6.19893 13.1641L3.42864 16.4899L3.42864 5.143L20.5715 5.143Z" fill="#003591"/>
<path d="M9.42864 10.286C10.3754 10.286 11.1429 9.51848 11.1429 8.57171C11.1429 7.62493 10.3754 6.85742 9.42864 6.85742C8.48187 6.85742 7.71436 7.62493 7.71436 8.57171C7.71436 9.51848 8.48187 10.286 9.42864 10.286Z" fill="#003591"/>
</svg>
