<svg width="34" height="62" viewBox="0 0 34 62" fill="none" xmlns="http://www.w3.org/2000/svg">
<path d="M33.0217 1.81989L31.5715 0.36963C31.3791 0.177352 31.1183 0.0693359 30.8463 0.0693359C30.5744 0.0693359 30.3135 0.177352 30.1212 0.36963L0.465821 30.025C0.273543 30.2174 0.165527 30.4782 0.165527 30.7501C0.165527 31.0221 0.273543 31.2829 0.465821 31.4753L30.1212 61.1307C30.3135 61.3229 30.5744 61.431 30.8463 61.431C31.1183 61.431 31.3791 61.3229 31.5715 61.1307L33.0217 59.6804C33.214 59.4881 33.322 59.2272 33.322 58.9553C33.322 58.6833 33.214 58.4225 33.0217 58.2301L5.54172 30.7501L33.0217 3.27014C33.214 3.07781 33.322 2.81698 33.322 2.54501C33.322 2.27305 33.214 2.01222 33.0217 1.81989Z" fill="#171A1F"/>
</svg>
