<svg width="18" height="19" viewBox="0 0 18 19" fill="none" xmlns="http://www.w3.org/2000/svg">
<path d="M3.85728 6.53585C4.9224 6.53585 5.78585 5.6724 5.78585 4.60728C5.78585 3.54216 4.9224 2.67871 3.85728 2.67871C2.79216 2.67871 1.92871 3.54216 1.92871 4.60728C1.92871 5.6724 2.79216 6.53585 3.85728 6.53585Z" fill="#003591"/>
<path d="M3.85728 11.6784C4.9224 11.6784 5.78585 10.815 5.78585 9.74986C5.78585 8.68474 4.9224 7.82129 3.85728 7.82129C2.79216 7.82129 1.92871 8.68474 1.92871 9.74986C1.92871 10.815 2.79216 11.6784 3.85728 11.6784Z" fill="#003591"/>
<path d="M3.85728 16.821C4.9224 16.821 5.78585 15.9576 5.78585 14.8924C5.78585 13.8273 4.9224 12.9639 3.85728 12.9639C2.79216 12.9639 1.92871 13.8273 1.92871 14.8924C1.92871 15.9576 2.79216 16.821 3.85728 16.821Z" fill="#003591"/>
<path d="M16.0713 3.96387L7.07129 3.96387L7.07129 5.24958L16.0713 5.24958V3.96387Z" fill="#003591"/>
<path d="M16.0713 9.10742L7.07129 9.10742L7.07129 10.3931L16.0713 10.3931V9.10742Z" fill="#003591"/>
<path d="M16.0713 14.25L7.07129 14.25L7.07129 15.5357L16.0713 15.5357V14.25Z" fill="#003591"/>
</svg>
