<svg width="19" height="15" viewBox="0 0 19 15" fill="none" xmlns="http://www.w3.org/2000/svg">
<path d="M10.2771 0.601078C10.1615 0.508544 10.0221 0.450548 9.87502 0.433772C9.72792 0.416996 9.57908 0.442122 9.44564 0.506256C9.31219 0.57039 9.19959 0.670922 9.12079 0.796266C9.042 0.921611 9.00022 1.06667 9.00028 1.21472L9.00028 6.49393L1.63421 0.601078C1.51863 0.508544 1.37927 0.450548 1.23217 0.433772C1.08507 0.416996 0.93622 0.442122 0.802779 0.506256C0.669338 0.57039 0.556732 0.670922 0.477937 0.796266C0.399143 0.921611 0.357366 1.06667 0.357422 1.21472L0.357422 13.7861C0.357366 13.9342 0.399143 14.0793 0.477937 14.2046C0.556732 14.3299 0.669338 14.4305 0.802779 14.4946C0.93622 14.5587 1.08507 14.5839 1.23217 14.5671C1.37927 14.5503 1.51863 14.4923 1.63421 14.3998L9.00028 8.50694L9.00028 13.7861C9.00022 13.9342 9.042 14.0793 9.12079 14.2046C9.19959 14.3299 9.31219 14.4305 9.44564 14.4946C9.57908 14.5587 9.72792 14.5839 9.87502 14.5671C10.0221 14.5503 10.1615 14.4923 10.2771 14.3998L18.1342 8.11408C18.2263 8.04047 18.3006 7.9471 18.3516 7.84087C18.4027 7.73465 18.4292 7.6183 18.4292 7.50043C18.4292 7.38257 18.4027 7.26622 18.3516 7.16C18.3006 7.05377 18.2263 6.9604 18.1342 6.88679L10.2771 0.601078Z" fill="white"/>
</svg>
