<svg width="24" height="25" viewBox="0 0 24 25" fill="none" xmlns="http://www.w3.org/2000/svg">
<path d="M13.875 15C13.875 15.3708 13.765 15.7334 13.559 16.0417C13.353 16.35 13.0601 16.5904 12.7175 16.7323C12.3749 16.8742 11.9979 16.9113 11.6342 16.839C11.2705 16.7666 10.9364 16.588 10.6742 16.3258C10.412 16.0636 10.2334 15.7295 10.161 15.3658C10.0887 15.0021 10.1258 14.6251 10.2677 14.2825C10.4096 13.9399 10.65 13.647 10.9583 13.441C11.2667 13.235 11.6292 13.125 12 13.125C12.4973 13.125 12.9742 13.3225 13.3258 13.6742C13.6775 14.0258 13.875 14.5027 13.875 15ZM12 11.625C12.2967 11.625 12.5867 11.537 12.8334 11.3722C13.08 11.2074 13.2723 10.9731 13.3858 10.699C13.4994 10.4249 13.5291 10.1233 13.4712 9.83236C13.4133 9.54139 13.2704 9.27412 13.0607 9.06434C12.8509 8.85456 12.5836 8.7117 12.2926 8.65382C12.0017 8.59594 11.7001 8.62565 11.426 8.73918C11.1519 8.85271 10.9176 9.04497 10.7528 9.29165C10.588 9.53832 10.5 9.82833 10.5 10.125C10.5 10.5228 10.658 10.9044 10.9393 11.1857C11.2206 11.467 11.6022 11.625 12 11.625ZM21.75 12.75C21.75 14.6784 21.1782 16.5634 20.1068 18.1668C19.0355 19.7702 17.5127 21.0199 15.7312 21.7578C13.9496 22.4958 11.9892 22.6889 10.0979 22.3127C8.20656 21.9365 6.46928 21.0079 5.10571 19.6443C3.74215 18.2807 2.81355 16.5434 2.43735 14.6521C2.06114 12.7608 2.25422 10.8004 2.99218 9.01884C3.73013 7.23726 4.97982 5.71451 6.58319 4.64317C8.18657 3.57183 10.0716 3 12 3C14.585 3.00273 17.0634 4.03084 18.8913 5.85872C20.7192 7.68661 21.7473 10.165 21.75 12.75ZM15.375 15C15.3751 14.4806 15.255 13.9683 15.0242 13.503C14.7935 13.0377 14.4582 12.6321 14.0447 12.3178C14.4855 11.9072 14.7925 11.3734 14.9257 10.7859C15.0589 10.1984 15.0122 9.58443 14.7916 9.02386C14.571 8.46329 14.1867 7.98213 13.6888 7.64302C13.1909 7.3039 12.6024 7.12253 12 7.12253C11.3976 7.12253 10.8091 7.3039 10.3112 7.64302C9.81332 7.98213 9.42904 8.46329 9.20842 9.02386C8.9878 9.58443 8.94106 10.1984 9.07427 10.7859C9.20749 11.3734 9.51449 11.9072 9.95532 12.3178C9.49835 12.6658 9.13775 13.1246 8.90766 13.6509C8.67756 14.1772 8.58558 14.7534 8.64043 15.3252C8.69527 15.8969 8.89512 16.4452 9.22106 16.9182C9.547 17.3911 9.98824 17.773 10.503 18.0278C11.0178 18.2825 11.5891 18.4017 12.1628 18.374C12.7365 18.3463 13.2936 18.1726 13.7815 17.8695C14.2693 17.5663 14.6717 17.1436 14.9506 16.6415C15.2294 16.1394 15.3755 15.5744 15.375 15Z" fill="#F2C263"/>
</svg>
