<svg width="40" height="41" viewBox="0 0 40 41" fill="none" xmlns="http://www.w3.org/2000/svg">
<path d="M20.0001 26.0832C22.9456 26.0832 25.3334 23.6954 25.3334 20.7498C25.3334 17.8043 22.9456 15.4165 20.0001 15.4165C17.0546 15.4165 14.6667 17.8043 14.6667 20.7498C14.6667 23.6954 17.0546 26.0832 20.0001 26.0832Z" fill="#96460d"/>
<path d="M14.9999 4.0835L11.9499 7.41683L6.66659 7.41683C4.83325 7.41683 3.33325 8.91683 3.33325 10.7502L3.33325 30.7502C3.33325 32.5835 4.83325 34.0835 6.66659 34.0835L33.3333 34.0835C35.1666 34.0835 36.6666 32.5835 36.6666 30.7502L36.6666 10.7502C36.6666 8.91683 35.1666 7.41683 33.3333 7.41683L28.0499 7.41683L24.9999 4.0835L14.9999 4.0835ZM19.9999 29.0835C15.3999 29.0835 11.6666 25.3502 11.6666 20.7502C11.6666 16.1502 15.3999 12.4168 19.9999 12.4168C24.5999 12.4168 28.3333 16.1502 28.3333 20.7502C28.3333 25.3502 24.5999 29.0835 19.9999 29.0835Z" fill="#96460d"/>
</svg>
