<svg width="46" height="47" viewBox="0 0 46 47" fill="none" xmlns="http://www.w3.org/2000/svg">
<path d="M45.1541 21.0382L25.4618 21.0382L25.4618 1.3459C25.4618 0.89298 25.0942 0.525391 24.6413 0.525391L21.3592 0.525391C20.9063 0.525391 20.5387 0.89298 20.5387 1.3459L20.5387 21.0382L0.846392 21.0382C0.393469 21.0382 0.0258789 21.4058 0.0258789 21.8587L0.0258789 25.1408C0.0258789 25.5937 0.393469 25.9613 0.846392 25.9613L20.5387 25.9613L20.5387 45.6536C20.5387 46.1065 20.9063 46.4741 21.3592 46.4741H24.6413C25.0942 46.4741 25.4618 46.1065 25.4618 45.6536L25.4618 25.9613L45.1541 25.9613C45.607 25.9613 45.9746 25.5937 45.9746 25.1408V21.8587C45.9746 21.4058 45.607 21.0382 45.1541 21.0382Z" fill="#9095A1"/>
</svg>
