<svg width="24" height="25" viewBox="0 0 24 25" fill="none" xmlns="http://www.w3.org/2000/svg">
<path d="M18.8572 7.60693H19.7144C20.169 7.60693 20.605 7.78755 20.9265 8.10904C21.248 8.43053 21.4286 8.86656 21.4286 9.32122V16.1784C21.4286 16.633 21.248 17.0691 20.9265 17.3905C20.605 17.712 20.169 17.8926 19.7144 17.8926L7.71436 17.8926" stroke="#A80000" stroke-width="2.05714" stroke-miterlimit="10"/>
<path d="M11.1429 14.4644L7.71436 17.8929L11.1429 21.3215" stroke="#A80000" stroke-width="2.05714" stroke-miterlimit="10" stroke-linecap="square"/>
<path d="M5.14272 17.8926H4.28557C3.83092 17.8926 3.39488 17.712 3.07339 17.3905C2.7519 17.0691 2.57129 16.633 2.57129 16.1784L2.57129 9.32122C2.57129 8.86656 2.7519 8.43053 3.07339 8.10904C3.39488 7.78755 3.83092 7.60693 4.28557 7.60693L16.2856 7.60693" stroke="#A80000" stroke-width="2.05714" stroke-miterlimit="10"/>
<path d="M12.8569 4.17871L16.2855 7.60728L12.8569 11.0359" stroke="#A80000" stroke-width="2.05714" stroke-miterlimit="10" stroke-linecap="square"/>
</svg>
