<svg width="24" height="25" viewBox="0 0 24 25" fill="none" xmlns="http://www.w3.org/2000/svg">
<path d="M19.7143 6.75L18.8571 6.75C18.6298 6.75 18.4118 6.84031 18.251 7.00105C18.0903 7.1618 18 7.37981 18 7.60714C18 7.83447 18.0903 8.05249 18.251 8.21323C18.4118 8.37398 18.6298 8.46429 18.8571 8.46429H19.7143C19.9416 8.46429 20.1596 8.55459 20.3204 8.71534C20.4811 8.87608 20.5714 9.0941 20.5714 9.32143L20.5714 16.1786C20.5714 16.4059 20.4811 16.6239 20.3204 16.7847C20.1596 16.9454 19.9416 17.0357 19.7143 17.0357L13.7143 17.0357L13.7143 14.4643C13.7143 14.3028 13.6688 14.1445 13.5828 14.0078C13.4968 13.8711 13.374 13.7614 13.2284 13.6914C13.0829 13.6215 12.9205 13.594 12.76 13.6123C12.5995 13.6306 12.4475 13.6939 12.3214 13.7949L8.0357 17.2234C7.93528 17.3037 7.85421 17.4056 7.7985 17.5215C7.74279 17.6374 7.71387 17.7643 7.71387 17.8929C7.71387 18.0214 7.74279 18.1484 7.7985 18.2642C7.85421 18.3801 7.93528 18.482 8.0357 18.5623L12.3214 21.9909C12.4475 22.0918 12.5995 22.1551 12.76 22.1734C12.9205 22.1917 13.0829 22.1643 13.2284 22.0943C13.374 22.0243 13.4968 21.9147 13.5828 21.7779C13.6688 21.6412 13.7143 21.4829 13.7143 21.3214V18.75L19.7143 18.75C20.3963 18.75 21.0503 18.4791 21.5325 17.9968C22.0148 17.5146 22.2857 16.8606 22.2857 16.1786L22.2857 9.32143C22.2857 8.63944 22.0148 7.98539 21.5325 7.50315C21.0503 7.02092 20.3963 6.75 19.7143 6.75Z" fill="#323743"/>
<path d="M5.14293 17.0359H4.28578C4.05846 17.0359 3.84044 16.9456 3.67969 16.7848C3.51895 16.6241 3.42864 16.4061 3.42864 16.1788L3.42864 9.32161C3.42864 9.09428 3.51895 8.87627 3.67969 8.71552C3.84044 8.55477 4.05846 8.46447 4.28578 8.46447L10.2858 8.46447L10.2858 11.0359C10.2857 11.1974 10.3313 11.3557 10.4173 11.4924C10.5032 11.6291 10.6261 11.7388 10.7716 11.8088C10.9172 11.8787 11.0796 11.9061 11.2401 11.8878C11.4005 11.8695 11.5526 11.8063 11.6786 11.7053L15.9644 8.27675C16.0648 8.19645 16.1458 8.09459 16.2015 7.97871C16.2573 7.86283 16.2862 7.7359 16.2862 7.60733C16.2862 7.47875 16.2573 7.35182 16.2015 7.23594C16.1458 7.12006 16.0648 7.0182 15.9644 6.9379L11.6786 3.50933C11.5526 3.40838 11.4005 3.34511 11.2401 3.32681C11.0796 3.30851 10.9172 3.33592 10.7716 3.40588C10.6261 3.47585 10.5032 3.58552 10.4173 3.72226C10.3313 3.859 10.2857 4.01724 10.2858 4.17875L10.2858 6.75018L4.28578 6.75018C3.6038 6.75018 2.94975 7.0211 2.46751 7.50334C1.98527 7.98557 1.71436 8.63963 1.71436 9.32161L1.71436 16.1788C1.71436 16.8607 1.98527 17.5148 2.46751 17.997C2.94975 18.4793 3.6038 18.7502 4.28578 18.7502H5.14293C5.37026 18.7502 5.58827 18.6599 5.74902 18.4991C5.90976 18.3384 6.00007 18.1204 6.00007 17.893C6.00007 17.6657 5.90976 17.4477 5.74902 17.2869C5.58827 17.1262 5.37026 17.0359 5.14293 17.0359Z" fill="#323743"/>
</svg>
