<svg width="34" height="62" viewBox="0 0 34 62" fill="none" xmlns="http://www.w3.org/2000/svg">
<path d="M3.87903 0.36963C3.68669 0.177352 3.42586 0.0693359 3.1539 0.0693359C2.88194 0.0693359 2.62111 0.177352 2.42877 0.36963L0.978516 1.81989C0.786238 2.01222 0.678223 2.27305 0.678223 2.54501C0.678223 2.81698 0.786238 3.07781 0.978516 3.27014L28.4585 30.7501L0.978516 58.2301C0.786238 58.4225 0.678223 58.6833 0.678223 58.9553C0.678223 59.2272 0.786238 59.4881 0.978516 59.6804L2.42877 61.1307C2.62111 61.3229 2.88194 61.431 3.1539 61.431C3.42586 61.431 3.68669 61.3229 3.87903 61.1307L33.5344 31.4753C33.7267 31.2829 33.8347 31.0221 33.8347 30.7501C33.8347 30.4782 33.7267 30.2174 33.5344 30.025L3.87903 0.36963Z" fill="#171A1F"/>
</svg>
