<svg width="48" height="48" viewBox="0 0 48 48" fill="none" xmlns="http://www.w3.org/2000/svg">
<path d="M24 23.1728C26.5138 23.1728 28.5517 21.1349 28.5517 18.6211C28.5517 16.1072 26.5138 14.0693 24 14.0693C21.4861 14.0693 19.4482 16.1072 19.4482 18.6211C19.4482 21.1349 21.4861 23.1728 24 23.1728Z" stroke="white" stroke-width="1.98621" stroke-miterlimit="10" stroke-linecap="square"/>
<path d="M22.3447 33.1035L26.4827 37.2414L22.3447 41.3794" stroke="white" stroke-width="1.98621" stroke-miterlimit="10" stroke-linecap="square"/>
<path d="M26.4222 37.1812C25.6294 37.2201 24.8217 37.2416 23.9999 37.2416C13.9447 37.2416 5.79297 34.2772 5.79297 30.6209C5.79297 29.5451 6.50718 28.5379 7.75352 27.6416" stroke="white" stroke-width="1.98621" stroke-miterlimit="10" stroke-linecap="square"/>
<path d="M32.7012 36.438C38.3643 35.315 42.2068 33.131 42.2068 30.6209C42.2068 29.5451 41.4926 28.5379 40.2463 27.6416" stroke="white" stroke-width="1.98621" stroke-miterlimit="10" stroke-linecap="square"/>
<path d="M33.9313 28.1378L14.0692 28.1378C13.4107 28.1378 12.7792 27.8762 12.3136 27.4106C11.848 26.945 11.5864 26.3135 11.5864 25.655L11.5864 12.4137C11.5864 11.7552 11.848 11.1237 12.3136 10.6581C12.7792 10.1925 13.4107 9.9309 14.0692 9.9309L17.7933 9.9309L20.2761 5.79297L27.7244 5.79297L30.2071 9.9309L33.9313 9.9309C34.5897 9.9309 35.2212 10.1925 35.6868 10.6581C36.1524 11.1237 36.414 11.7552 36.414 12.4137V25.655C36.414 26.3135 36.1524 26.945 35.6868 27.4106C35.2212 27.8762 34.5897 28.1378 33.9313 28.1378Z" stroke="white" stroke-width="1.98621" stroke-miterlimit="10" stroke-linecap="square"/>
</svg>
