<svg width="24" height="25" viewBox="0 0 24 25" fill="none" xmlns="http://www.w3.org/2000/svg">
<path d="M21.8092 11.2405C20.49 9.3745 16.8926 5.03564 12 5.03564C7.10747 5.03564 3.51433 9.3745 2.19004 11.2414C1.87922 11.683 1.7124 12.2099 1.7124 12.7499C1.7124 13.29 1.87922 13.8169 2.19004 14.2585C3.51433 16.1254 7.10747 20.4642 12 20.4642C16.8926 20.4642 20.49 16.1254 21.81 14.2585C22.1209 13.8167 22.2877 13.2896 22.2876 12.7494C22.2874 12.2091 22.1203 11.6821 21.8092 11.2405ZM12 17.0356C11.1524 17.0356 10.3238 16.7843 9.61903 16.3134C8.91425 15.8425 8.36493 15.1731 8.04056 14.39C7.71618 13.6069 7.63131 12.7452 7.79668 11.9138C7.96204 11.0825 8.37022 10.3188 8.96958 9.71947C9.56895 9.1201 10.3326 8.71193 11.1639 8.54656C11.9953 8.3812 12.857 8.46607 13.6401 8.79045C14.4232 9.11482 15.0926 9.66413 15.5635 10.3689C16.0344 11.0737 16.2858 11.9023 16.2858 12.7499C16.2858 13.8866 15.8342 14.9767 15.0305 15.7804C14.2268 16.5841 13.1367 17.0356 12 17.0356Z" fill="#003591"/>
</svg>
