<svg width="22" height="23" viewBox="0 0 22 23" fill="none" xmlns="http://www.w3.org/2000/svg">
<path d="M21.6058 2.55784L20.1918 1.14384C19.8008 0.752836 19.1688 0.752836 18.7778 1.14384L10.9998 8.92184L3.22184 1.14384C2.83084 0.752836 2.19884 0.752836 1.80784 1.14384L0.393836 2.55784C0.00283593 2.94884 0.00283593 3.58084 0.393836 3.97184L8.17184 11.7498L0.393836 19.5278C0.00283593 19.9188 0.00283593 20.5508 0.393836 20.9418L1.80784 22.3558C2.00284 22.5508 2.25884 22.6488 2.51484 22.6488C2.77084 22.6488 3.02684 22.5508 3.22184 22.3558L10.9998 14.5778L18.7778 22.3558C18.9728 22.5508 19.2288 22.6488 19.4848 22.6488C19.7408 22.6488 19.9968 22.5508 20.1918 22.3558L21.6058 20.9418C21.9968 20.5508 21.9968 19.9188 21.6058 19.5278L13.8278 11.7498L21.6058 3.97184C21.9968 3.58084 21.9968 2.94884 21.6058 2.55784Z" fill="#171A1F"/>
</svg>
