<svg width="114" height="117" viewBox="0 0 114 117" fill="none" xmlns="http://www.w3.org/2000/svg">
<path d="M106.563 36.3127L84.0626 46.8127L69.5001 33.1252L69.5001 24.3752L84.0626 10.6877L106.563 21.1877C108.938 22.3127 111.688 21.2502 112.813 18.9377C113.938 16.5627 112.875 13.8127 110.563 12.6877L86.0626 1.25021C83.6876 0.125215 80.8751 0.625215 79.0001 2.50022L68.1251 12.5002C67.0001 11.0002 65.2501 10.0002 63.2501 10.0002C59.8126 10.0002 57.0001 12.8127 57.0001 16.2502V22.5002L37.1251 22.5002C34.1251 14.0627 25.6251 8.31272 15.7501 10.4377C8.50008 12.0002 2.31258 18.2502 1.00008 25.6252C-0.37492 33.8752 3.87508 41.0627 10.2501 44.8752L26.2501 97.5002H7.00008L7.00008 116.25L88.2501 116.25V97.5002L65.6251 97.5002L34.5626 39.8127C35.6251 38.3127 36.5001 36.7502 37.1251 35.0002L57.0001 35.0002V41.2502C57.0001 44.6877 59.8126 47.5002 63.2501 47.5002C65.2501 47.5002 67.0001 46.5002 68.1251 45.0002L79.0001 55.0002C80.8751 56.8752 83.6876 57.3752 86.0626 56.2502L110.563 44.8127C112.938 43.6877 113.938 40.9377 112.813 38.5627C111.688 36.2502 108.938 35.1877 106.563 36.3127ZM19.5001 35.0002C16.0626 35.0002 13.2501 32.1877 13.2501 28.7502C13.2501 25.3127 16.0626 22.5002 19.5001 22.5002C22.9376 22.5002 25.7501 25.3127 25.7501 28.7502C25.7501 32.1877 22.9376 35.0002 19.5001 35.0002Z" fill="#E5EEFF"/>
</svg>
